<svg xmlns="http://www.w3.org/2000/svg" xmlns:xlink="http://www.w3.org/1999/xlink" width="100" zoomAndPan="magnify" viewBox="0 0 750 149.999998" height="32" preserveAspectRatio="xMidYMid meet" version="1.0"><defs><g/></defs><g fill="#ffffff" fill-opacity="1"><g transform="translate(14.366087, 108.450504)"><g><path d="M 88.34375 -18.265625 L 88.34375 -25.035156 C 88.34375 -31.871094 84.304688 -36.964844 76.289062 -40.320312 C 71.195312 -42.554688 64.238281 -43.734375 55.414062 -43.734375 L 36.964844 -43.734375 C 33.984375 -43.734375 31.433594 -43.734375 29.386719 -43.859375 C 27.335938 -43.984375 25.78125 -44.109375 24.726562 -44.355469 C 19.074219 -45.351562 16.277344 -47.464844 16.277344 -50.757812 L 16.277344 -56.035156 C 16.277344 -61.316406 23.792969 -63.988281 38.890625 -63.988281 C 42.492188 -63.988281 44.480469 -64.050781 44.792969 -64.238281 C 46.71875 -64.859375 47.710938 -66.351562 47.710938 -68.835938 C 47.710938 -73.058594 46.097656 -75.171875 42.867188 -75.171875 C 30.378906 -75.171875 21.804688 -74.550781 17.148438 -73.371094 C 7.332031 -70.511719 2.484375 -64.734375 2.484375 -55.914062 L 2.484375 -50.195312 C 2.484375 -45.351562 4.410156 -41.4375 8.324219 -38.457031 C 11.867188 -35.722656 16.152344 -34.105469 21.121094 -33.546875 C 23.980469 -33.300781 26.339844 -33.175781 28.328125 -33.050781 C 30.316406 -32.925781 31.808594 -32.863281 32.925781 -32.863281 L 55.851562 -32.117188 C 68.277344 -31.683594 74.550781 -29.136719 74.550781 -24.539062 L 74.550781 -18.015625 C 74.550781 -13.234375 68.089844 -10.871094 55.230469 -10.871094 L 7.453125 -10.871094 C 5.46875 -10.871094 4.101562 -10.25 3.417969 -9.070312 C 2.917969 -8.199219 2.671875 -6.648438 2.671875 -4.410156 C 2.671875 -1.117188 4.222656 0.496094 7.453125 0.496094 L 55.230469 0.496094 C 72.5625 0.496094 82.9375 -2.546875 86.417969 -8.757812 C 87.660156 -10.996094 88.34375 -14.164062 88.34375 -18.265625 Z M 88.34375 -18.265625 "/></g></g><g transform="translate(105.193145, 108.450504)"><g><path d="M 20.875 -67.21875 C 20.875 -69.332031 19.941406 -71.070312 18.140625 -72.3125 C 16.523438 -73.371094 14.597656 -73.929688 12.363281 -73.929688 C 10.0625 -73.929688 8.136719 -73.371094 6.585938 -72.3125 C 4.722656 -71.070312 3.851562 -69.332031 3.851562 -67.21875 C 3.851562 -65.046875 4.722656 -63.367188 6.585938 -62.125 C 8.136719 -61.007812 10.0625 -60.511719 12.363281 -60.511719 C 14.597656 -60.511719 16.523438 -61.007812 18.140625 -62.125 C 19.941406 -63.367188 20.875 -65.046875 20.875 -67.21875 Z M 19.074219 -4.410156 L 19.074219 -54.421875 C 19.074219 -56.71875 18.203125 -58.210938 16.464844 -58.832031 C 15.902344 -59.082031 14.039062 -59.265625 10.933594 -59.265625 C 7.640625 -59.265625 6.027344 -57.652344 6.027344 -54.421875 L 6.027344 -4.410156 C 6.027344 -2.050781 6.832031 -0.558594 8.574219 0.0625 C 9.070312 0.371094 10.933594 0.496094 14.164062 0.496094 C 17.394531 0.496094 19.074219 -1.117188 19.074219 -4.410156 Z M 19.074219 -4.410156 "/></g></g><g transform="translate(129.918979, 108.450504)"><g><path d="M 85.792969 -4.410156 L 85.792969 -42.246094 C 85.792969 -53.425781 75.855469 -59.082031 56.035156 -59.082031 L 34.605469 -59.082031 C 14.539062 -59.082031 4.535156 -53.425781 4.535156 -42.121094 L 4.535156 -4.410156 C 4.535156 -2.050781 5.40625 -0.558594 7.144531 0.0625 C 7.640625 0.371094 9.566406 0.496094 12.796875 0.496094 C 16.027344 0.496094 17.644531 -1.117188 17.644531 -4.410156 L 17.644531 -42.246094 C 17.644531 -44.917969 19.753906 -46.65625 23.980469 -47.527344 C 24.851562 -47.648438 26.09375 -47.773438 27.644531 -47.898438 C 29.199219 -47.960938 31.125 -48.023438 33.421875 -48.023438 L 56.035156 -48.023438 C 58.523438 -48.023438 60.570312 -47.960938 62.1875 -47.898438 C 63.800781 -47.835938 65.046875 -47.710938 65.851562 -47.589844 C 70.324219 -46.71875 72.5625 -44.980469 72.5625 -42.308594 L 72.5625 -4.410156 C 72.5625 -2.050781 73.433594 -0.558594 75.234375 0.0625 C 75.730469 0.371094 77.65625 0.496094 80.886719 0.496094 C 84.117188 0.496094 85.792969 -1.117188 85.792969 -4.410156 Z M 85.792969 -4.410156 "/></g></g><g transform="translate(220.311161, 108.450504)"><g><path d="M 87.722656 -4.410156 C 87.722656 -8.449219 86.042969 -10.5 82.8125 -10.5 L 33.484375 -10.5 C 21.496094 -10.5 15.53125 -12.984375 15.53125 -18.078125 L 15.53125 -41.375 C 15.53125 -45.785156 20.75 -48.023438 31.3125 -48.023438 L 82.316406 -48.023438 C 85.671875 -48.023438 87.410156 -49.824219 87.410156 -53.550781 C 87.410156 -57.21875 85.671875 -59.082031 82.316406 -59.082031 L 30.378906 -59.082031 C 11.742188 -59.082031 2.421875 -53.054688 2.421875 -41.003906 L 2.421875 -17.519531 C 2.421875 -10.0625 5.902344 -4.96875 12.984375 -2.175781 C 17.085938 -0.371094 23.792969 0.496094 33.113281 0.496094 L 81.632812 0.496094 C 85.671875 0.496094 87.722656 -1.117188 87.722656 -4.410156 Z M 87.722656 -4.410156 "/></g></g><g transform="translate(310.392717, 108.450504)"><g><path d="M 41.4375 -52.867188 C 41.4375 -56.96875 39.761719 -59.082031 36.53125 -59.082031 C 26.839844 -59.082031 19.570312 -58.210938 14.722656 -56.472656 C 6.710938 -53.675781 2.734375 -48.394531 2.734375 -40.628906 L 2.734375 -4.472656 C 2.734375 -1.117188 4.285156 0.496094 7.394531 0.496094 C 10.4375 0.496094 12.363281 0.371094 13.109375 0.125 C 14.910156 -0.496094 15.84375 -1.988281 15.84375 -4.410156 L 15.84375 -40.628906 C 15.84375 -45.601562 20.875 -48.148438 30.9375 -48.148438 C 31.433594 -48.148438 32.242188 -48.085938 33.238281 -48.023438 C 34.230469 -47.960938 35.039062 -47.960938 35.597656 -47.960938 C 39.449219 -47.960938 41.4375 -49.574219 41.4375 -52.867188 Z M 41.4375 -52.867188 "/></g></g><g transform="translate(354.563742, 108.450504)"><g><path d="M 85.546875 -18.015625 L 85.546875 -40.070312 C 85.546875 -52.746094 75.855469 -59.082031 56.472656 -59.082031 L 34.605469 -59.082031 C 26.777344 -59.082031 20.253906 -57.714844 15.035156 -55.105469 C 7.828125 -51.625 4.285156 -46.59375 4.285156 -39.945312 L 4.285156 -18.015625 C 4.285156 -11.308594 7.890625 -6.398438 15.097656 -3.167969 C 20.9375 -0.683594 27.460938 0.496094 34.664062 0.496094 L 56.472656 0.496094 C 64.363281 0.496094 70.699219 -0.683594 75.480469 -3.105469 C 82.191406 -6.210938 85.546875 -11.183594 85.546875 -18.015625 Z M 72.25 -18.015625 C 72.25 -15.34375 70.140625 -13.355469 65.914062 -11.988281 C 62.808594 -10.996094 59.578125 -10.5 56.160156 -10.5 L 34.851562 -10.5 C 30.753906 -10.5 27.210938 -10.933594 24.230469 -11.804688 C 19.632812 -13.109375 17.394531 -15.160156 17.394531 -18.015625 L 17.394531 -39.945312 C 17.394531 -42.867188 19.632812 -45.039062 24.105469 -46.53125 C 27.210938 -47.527344 30.8125 -48.023438 34.789062 -48.023438 L 56.097656 -48.023438 C 66.847656 -48.023438 72.25 -45.660156 72.25 -40.941406 Z M 72.25 -18.015625 "/></g></g><g transform="translate(444.396797, 108.450504)"><g><path d="M 78.152344 -16.523438 L 78.152344 -19.257812 C 78.152344 -29.945312 70.015625 -35.347656 53.863281 -35.347656 L 32.117188 -35.347656 C 21.183594 -35.347656 15.78125 -37.089844 15.78125 -40.691406 L 15.78125 -43.796875 C 15.78125 -45.910156 17.953125 -47.214844 22.304688 -47.835938 C 23.296875 -47.960938 26.21875 -48.023438 31.1875 -48.023438 L 40.628906 -48.023438 C 43.859375 -48.023438 45.539062 -49.636719 45.539062 -52.867188 C 45.539062 -56.96875 43.859375 -59.082031 40.628906 -59.082031 C 34.789062 -59.082031 30.007812 -58.957031 26.15625 -58.707031 C 22.304688 -58.460938 19.445312 -58.148438 17.457031 -57.714844 C 7.578125 -55.664062 2.671875 -51.003906 2.671875 -43.796875 L 2.671875 -40.566406 C 2.671875 -29.632812 12.425781 -24.167969 32.054688 -24.167969 L 53.367188 -24.167969 C 60.820312 -24.167969 64.546875 -22.363281 64.546875 -18.761719 L 64.546875 -16.523438 C 64.546875 -12.488281 60.449219 -10.5 52.246094 -10.5 L 7.828125 -10.5 C 4.597656 -10.5 2.980469 -8.449219 2.980469 -4.410156 C 2.980469 -1.117188 4.597656 0.496094 7.828125 0.496094 L 52.183594 0.496094 C 69.457031 0.496094 78.152344 -5.15625 78.152344 -16.523438 Z M 78.152344 -16.523438 "/></g></g></g><g fill="#3c4e66" fill-opacity="1"><g transform="translate(525.189168, 108.450504)"><g><path d="M 108.46875 -4.660156 C 108.46875 -5.589844 108.347656 -6.210938 108.222656 -6.523438 L 62 -71.941406 C 61.753906 -72.25 61.628906 -72.5 61.503906 -72.75 C 61.378906 -72.996094 61.316406 -73.183594 61.253906 -73.308594 C 60.136719 -75.109375 58.023438 -76.042969 54.792969 -76.042969 C 50.445312 -76.042969 47.339844 -74.675781 45.601562 -71.941406 L 1.988281 -5.28125 C 1.738281 -4.90625 1.617188 -4.472656 1.617188 -4.039062 C 1.617188 -2.546875 2.359375 -1.304688 3.976562 -0.25 C 5.34375 0.746094 6.832031 1.242188 8.386719 1.242188 C 9.878906 1.242188 11.308594 0.3125 12.671875 -1.675781 L 24.914062 -19.445312 L 83.0625 -19.445312 L 95.300781 -1.675781 C 96.914062 0.808594 99.089844 2.050781 101.761719 2.050781 C 103.625 2.050781 105.238281 1.429688 106.542969 0.125 C 107.789062 -1.117188 108.46875 -2.734375 108.46875 -4.660156 Z M 74.984375 -30.875 L 32.988281 -30.875 L 54.050781 -61.753906 Z M 74.984375 -30.875 "/></g></g><g transform="translate(635.275041, 108.450504)"><g><path d="M 98.71875 -55.042969 C 98.71875 -57.902344 96.355469 -59.328125 91.632812 -59.328125 C 88.777344 -59.328125 86.789062 -58.644531 85.671875 -57.28125 L 50.257812 -13.917969 L 14.660156 -57.28125 C 13.542969 -58.644531 11.554688 -59.328125 8.699219 -59.328125 C 3.914062 -59.328125 1.554688 -57.902344 1.554688 -55.042969 C 1.554688 -53.863281 2.113281 -52.558594 3.355469 -51.128906 L 45.351562 -0.558594 C 46.71875 1.054688 48.332031 1.863281 50.195312 1.863281 C 52.0625 1.863281 53.675781 1.054688 55.167969 -0.683594 L 96.914062 -51.128906 C 98.097656 -52.558594 98.71875 -53.863281 98.71875 -55.042969 Z M 98.71875 -55.042969 "/></g></g></g></svg>